<svg viewBox="0 38.950574 128 50.098855" stroke-linejoin="round" width="81.758356" height="32" clip-rule="evenodd" fill-rule="evenodd" stroke-miterlimit="2" version="1.1" xmlns="http://www.w3.org/2000/svg" xmlns:xlink="http://www.w3.org/1999/xlink">
  <style>
    :root, .palette0 {color: currentColor;
      --color0: currentColor;
    }
  </style>
  <path stroke-width="2.61" stroke="currentColor" fill="none" transform="matrix(1.913704, 0, 0, 1.913704, -58.477051, 6.704663)" d="M35.096 18.265c-0.238-0.073-0.485-0.11-0.734-0.11-1.371 0-2.5 1.128-2.5 2.499 0 0 0 18.57 0 18.57 0 1.372 1.129 2.5 2.5 2.5 0.249 0 0.496-0.037 0.734-0.11l21.018-6.459V24.722c0 0-14.415-4.43-21.018-6.457M92.875 18.275c0.241-0.074 0.491-0.112 0.743-0.112 1.382 0 2.52 1.138 2.52 2.52 0 1e-3 0 1e-3 0 2e-3 0 0 0 18.537 0 18.537 0 1.372-1.129 2.5-2.5 2.5-0.249 0-0.497-0.037-0.735-0.11l-20.979-6.457V24.722z" fill-rule="nonzero" />
  <path fill="currentColor" transform="matrix(2.194072, 0, 0, 2.194072, -76.420576, -1.689156)" d="M72.653 28.14v3.597c0 2.76-2.24 5-5 5h-7.306c-2.76 0-5-2.24-5-5V28.14c0-2.76 2.24-5 5-5h7.306c2.76 0 5 2.24 5 5" />
</svg>