<svg viewBox="1e-3 488.531665 128 46.935671" fill="currentColor" width="87.268381" height="32" xmlns="http://www.w3.org/2000/svg" xmlns:xlink="http://www.w3.org/1999/xlink">
  <style>
    :root, .palette0 {color: currentColor;
      --color0: currentColor;
    }
  </style>
  <path d="M6.4411 488.7508c-0.4738-0.1454-0.9658-0.2191-1.4616-0.2191-2.7302 0-4.9785 2.2463-4.9785 4.9766 0 0 0 36.9805 0 36.9805 0 2.7323 2.2483 4.9785 4.9785 4.9785 0.4959 0 0.9878-0.0737 1.4616-0.2191l41.8556-12.8625 0-20.7764c0 0-28.7063-8.822-41.8556-12.8585zM121.503 488.7708c0.4799-0.1474 0.9779-0.223 1.4796-0.223 2.7521 0 5.0184 2.2661 5.0184 5.0184 0 2e-3 0 2e-3 0 4e-3 0 0 0 36.9149 0 36.9149 0 2.7322-2.2483 4.9785-4.9785 4.9785-0.4959 0-0.9898-0.0738-1.4638-0.2191l-41.7779-12.8586 0-20.7763z" />
  <path d="M82.672 508.1169l0 7.7613c0 5.9555-4.8333 10.7887-10.7887 10.7887l-15.7645 0c-5.9555 0-10.7887-4.8333-10.7887-10.7887l0-7.7613c0-5.9555 4.8334-10.7887 10.7887-10.7887l15.7645 0c5.9555 0 10.7887 4.8334 10.7887 10.7887z" />
</svg>