<svg xmlns="http://www.w3.org/2000/svg" xml:space="preserve" fill-rule="evenodd" clip-rule="evenodd" viewBox="0 0 128 128">
  <path fill="#1e2a3a" d="M128 22v84c0 12.142-9.858 22-22 22H22c-12.142 0-22-9.858-22-22V22C0 9.858 9.858 0 22 0h84c12.142 0 22 9.858 22 22"/>
  <path fill="#fff" fill-rule="nonzero" d="M22.374 13.249a2.5 2.5 0 0 0-3.235 2.39v28.6a2.5 2.5 0 0 0 3.235 2.39l30.618-9.409V22.657zM105.597 13.26a2.522 2.522 0 0 1 3.264 2.41v28.567a2.5 2.5 0 0 1-3.235 2.39L75.06 37.22V22.657z"/>
  <path fill="#1a2535" stroke="#fff" stroke-opacity=".2" stroke-width="1.5" d="M106 72v36c0 3.863-3.137 7-7 7H29c-3.863 0-7-3.137-7-7V72c0-3.863 3.137-7 7-7h70c3.863 0 7 3.137 7 7Z"/>
  <path fill="none" stroke="#fff" stroke-opacity=".15" d="M22 77h84"/>
  <circle cx="26" cy="74" r="2.5" fill="#fff" fill-opacity=".5" transform="translate(6 -3)"/>
  <circle cx="33" cy="74" r="2.5" fill="#fff" fill-opacity=".35" transform="translate(6 -3)"/>
  <circle cx="40" cy="74" r="2.5" fill="#fff" fill-opacity=".2" transform="translate(6 -3)"/>
  <path fill="#fff" fill-opacity=".65" d="M82 85a2 2 0 0 1-2 2H32a2 2 0 0 1 0-4h48a2 2 0 0 1 2 2"/>
  <path fill="#fff" fill-opacity=".45" d="M70 93a2 2 0 0 1-2 2H38a2 2 0 0 1 0-4h30a2 2 0 0 1 2 2"/>
  <path fill="#fff" fill-opacity=".5" d="M72 101a2 2 0 0 1-2 2H32a2 2 0 0 1 0-4h38a2 2 0 0 1 2 2"/>
  <path fill="#fff" fill-opacity=".88" fill-rule="nonzero" d="m112 55.912 1.933 5.155 5.8 1.933-5.8 1.933L112 70.088l-1.933-5.155-5.8-1.933 5.8-1.933z"/>
  <path fill="#fff" fill-opacity=".6" fill-rule="nonzero" d="m96.985 81.227 1.256 3.768 3.768 1.256-3.768 1.256-1.256 3.768-1.256-3.768-3.768-1.256 3.768-1.256z"/>
  <path fill="#fff" fill-opacity=".4" fill-rule="nonzero" d="m14.59 100.797.8 3 3.2 1-3.2 1-.8 3-.8-3-3.2-1 3.2-1z"/>
  <path fill="#c0392b" d="M76.078 25.45v8.978c0 2.76-2.24 5-5 5H56.922c-2.76 0-5-2.24-5-5V25.45c0-2.76 2.24-5 5-5h14.156c2.76 0 5 2.24 5 5"/>
</svg>
